<?xml version="1.0" encoding="utf-8"?>
<!-- Svg Vector Icons : http://www.onlinewebfonts.com/icon -->
<!DOCTYPE svg PUBLIC "-//W3C//DTD SVG 1.1//EN" "http://www.w3.org/Graphics/SVG/1.1/DTD/svg11.dtd">
<svg version="1.1" xmlns="http://www.w3.org/2000/svg" xmlns:xlink="http://www.w3.org/1999/xlink" x="0px" y="0px" viewBox="0 0 1000 1000" enable-background="new 0 0 1000 1000" xml:space="preserve">
<metadata> Svg Vector Icons : http://www.onlinewebfonts.com/icon </metadata>
<g><g transform="translate(0.000000,511.000000) scale(0.100000,-0.100000)"><path d="M315.7,4312.3c-85.2-42.6-127.8-85.2-165.1-165.1c-47.9-103.9-50.6-269-50.6-4034.5c0-3912,0-3928,55.9-4039.8c39.9-82.6,85.2-127.8,167.8-167.8c111.9-55.9,122.5-55.9,4676.3-55.9c4553.8,0,4564.5,0,4676.3,55.9c82.6,40,127.9,85.2,167.8,167.8C9900-3815.3,9900-3799.3,9900,110s0,3925.3-55.9,4037.2c-39.9,82.6-85.2,127.8-167.8,167.8c-111.8,55.9-122.5,55.9-4679,55.9H432.9L315.7,4312.3z M8248.9,3904.8c210.4-109.2,210.4-431.4,0-556.6c-277-162.4-588.5,149.1-439.4,436.7C7886.7,3931.5,8089.1,3987.4,8248.9,3904.8z M9101.1,3904.8c210.4-109.2,210.4-431.4,0-556.6c-277-162.4-588.5,149.1-439.4,436.7C8738.9,3931.5,8941.3,3987.4,9101.1,3904.8z M9473.9-316.1v-3408.7H5000H526.1v3408.7v3408.7H5000h4473.9V-316.1z"/><path d="M6065.2,1175.2v-213h1278.3h1278.3v213v213H7343.5H6065.2V1175.2z"/><path d="M2337,1108.6c0-98.5,98.5-335.5,183.7-436.7l74.6-93.2l-87.9-119.8c-47.9-69.2-109.2-183.7-138.5-255.7C2318.3,75.4,2310.3,70.1,2227.8,78c-231.7,24-370.2,197.1-370.2,460.7c0,183.8-151.8,271.6-269,154.5c-50.6-50.6-55.9-74.6-37.3-221c8-87.9,42.6-218.4,71.9-287.6c63.9-151.8,239.7-322.2,378.1-367.5c77.2-24,95.9-42.6,82.6-77.2c-10.6-23.9-24-109.2-32-194.4l-16-149.1l-290.3-10.7c-253-8-298.3-16-330.2-58.6c-50.6-71.9-47.9-138.5,16-202.4c47.9-47.9,87.9-53.3,343.5-53.3h290.3l42.6-119.8l39.9-122.5l-71.9-26.6c-178.4-63.9-215.7-85.2-306.2-178.4c-122.5-125.2-197.1-295.6-218.4-500.6c-18.6-146.5-13.3-170.4,37.3-221.1c119.8-119.8,269-29.3,269,165.1c0,141.1,82.6,319.6,170.4,378.2c37.3,24,111.9,55.9,167.8,66.6c93.2,21.3,103.9,18.6,237-119.8c82.6-82.5,213-178.4,322.2-229c162.4-82.6,202.4-90.6,407.4-90.6s245,8,407.4,90.6c111.9,53.3,239.7,146.5,324.9,234.3l143.8,146.5l141.2-42.6c247.7-71.9,332.9-173.1,370.2-442.1c29.3-207.7,146.5-277,266.3-157.1c47.9,48,55.9,79.9,42.6,197.1c-18.6,197.1-114.5,396.8-237,508.6c-111.8,98.5-292.9,194.4-372.8,197.1c-55.9,0-58.6,21.3-16,159.8l34.6,106.5h285c253,0,292.9,5.3,340.9,53.3c63.9,63.9,66.6,130.5,16,202.4c-32,42.6-77.2,50.6-319.6,58.6l-279.6,10.7l-16,95.9c-8,55.9-26.6,141.1-37.3,194.4l-21.3,93.2l133.1,47.9c263.7,93.2,458.1,359.5,490,668.4c13.3,117.2,5.3,149.1-42.6,197.1c-119.8,119.8-237,50.6-266.3-159.8c-10.6-82.6-42.6-189.1-71.9-239.7c-53.3-95.9-221-191.7-375.5-221c-79.9-13.3-87.9-8-117.2,85.2c-45.3,138.5-141.1,300.9-237,391.5c-79.9,77.2-79.9,77.2-26.6,130.5c63.9,71.9,149.1,266.3,167.8,396.8l16,98.5H3751h-151.8l-29.3-114.5c-18.6-61.3-58.6-146.5-90.5-189.1c-55.9-69.2-66.6-74.6-202.4-55.9c-87.9,10.7-199.7,5.3-277-13.3c-125.2-32-138.5-29.3-202.4,29.3c-85.2,82.6-141.1,189.1-141.1,277c0,63.9-5.3,66.6-159.8,66.6C2344.9,1175.2,2337,1172.5,2337,1108.6z"/><path d="M6065.2,110v-213h1278.3h1278.3v213v213H7343.5H6065.2V110z"/><path d="M6065.2-955.2v-213h1278.3h1278.3v213v213H7343.5H6065.2V-955.2z"/><path d="M6065.2-2020.4v-213h1278.3h1278.3v213v213H7343.5H6065.2V-2020.4z"/></g></g>
</svg>